<?xml version="1.0" encoding="UTF-8" standalone="no"?>
<svg
   width="660.03552pt"
   height="660.55298pt"
   version="1.1"
   viewBox="0 0 660.03552 660.55298"
   id="svg4"
   sodipodi:docname="x11launch-tray.svg"
   inkscape:version="1.2.2 (b0a8486541, 2022-12-01)"
   xmlns:inkscape="http://www.inkscape.org/namespaces/inkscape"
   xmlns:sodipodi="http://sodipodi.sourceforge.net/DTD/sodipodi-0.dtd"
   xmlns="http://www.w3.org/2000/svg"
   xmlns:svg="http://www.w3.org/2000/svg">
  <defs
     id="defs8" />
  <sodipodi:namedview
     id="namedview6"
     pagecolor="#ffffff"
     bordercolor="#000000"
     borderopacity="0.25"
     inkscape:showpageshadow="2"
     inkscape:pageopacity="0.0"
     inkscape:pagecheckerboard="0"
     inkscape:deskcolor="#d1d1d1"
     inkscape:document-units="pt"
     showgrid="false"
     inkscape:zoom="0.53"
     inkscape:cx="102.83019"
     inkscape:cy="439.62264"
     inkscape:window-width="1920"
     inkscape:window-height="1018"
     inkscape:window-x="0"
     inkscape:window-y="30"
     inkscape:window-maximized="1"
     inkscape:current-layer="svg4" />
  <path
     d="m 66.00355,331.85089 38.8096,38.8032 h 83.968 l 19.6656,19.7 30.572,-30.5184 -32.3184,-32.3752 -75.2064,-0.003 68.0592,-68.0496 h 101.912 l 6.42816,-9.5032 c 11.428,-16.9096 24.5376,-32.7968 38.9656,-47.2184 14.4376,-14.4376 30.3216,-27.544 47.228,-38.9624 17.0592,-11.5184 35.2904,-21.4128 54.1816,-29.4064 19.244,-8.1376 39.3784,-14.384 59.856,-18.5752 13.772,-2.81872 27.8064,-4.72184 41.9376,-5.70312 -0.9844,14.1312 -2.89064,28.1624 -5.70312,41.9216 -4.19064,20.456 -10.4408,40.5936 -18.5816,59.8408 -8.0032,18.9032 -17.9,37.128 -29.4096,54.1624 -11.416,16.9 -24.5216,32.784 -38.9656,47.2184 -14.444,14.444 -30.3312,27.5472 -47.228,38.9624 l -9.5096,6.42184 v 101.896 l -68.0688,68.0528 v -75.1816 l -61.3064,-61.2816 -171.984,171.88 30.5216,30.5656 141.44,-141.384 18.1248,18.116 v 83.96 l 38.8096,38.7968 115.656,-115.64 v -97.056 c 15.644,-11.3128 30.4312,-23.9128 44.084,-37.5592 16.3872,-16.3784 31.2688,-34.4064 44.2184,-53.5816 13.0752,-19.3408 24.3128,-40.0376 33.4032,-61.516 9.2528,-21.8784 16.3528,-44.7592 21.1096,-68.0128 4.88752,-23.8496 7.35936,-48.3968 7.35936,-72.965604 v -21.6 h -21.6 c -24.5528,0 -49.1032,2.47816 -72.9688,7.35936 -23.272,4.76248 -46.1528,11.8592 -68.0248,21.1096 -21.4592,9.078404 -42.1624,20.309604 -61.5312,33.393604 -19.1816,12.956 -37.216,27.8248 -53.5904,44.2096 -13.6408,13.6312 -26.2408,28.416 -37.5656,44.0752 l -97.088,0.003 z"
     id="path2"
     style="fill:#ffffff;stroke-width:0.8" />
</svg>
